<?xml version="1.0" standalone="no"?>
<!DOCTYPE svg PUBLIC "-//W3C//DTD SVG 20010904//EN"
 "http://www.w3.org/TR/2001/REC-SVG-20010904/DTD/svg10.dtd">
<svg version="1.0" xmlns="http://www.w3.org/2000/svg"
 width="197.000000pt" height="198.000000pt" viewBox="0 0 197.000000 198.000000"
 preserveAspectRatio="xMidYMid meet">

<g transform="translate(0.000000,198.000000) scale(0.100000,-0.100000)"
fill="#000000" stroke="none">
<path d="M50 980 l0 -930 710 0 710 0 0 640 c0 409 -4 640 -10 640 -5 0 -7
-12 -4 -28 4 -20 0 -33 -15 -46 -21 -19 -21 -25 -21 -583 l0 -563 -655 0 -655
0 0 870 0 870 655 0 655 0 0 -21 c0 -15 4 -19 16 -15 9 3 20 6 25 6 5 0 9 20
9 45 l0 45 -710 0 -710 0 0 -930z"/>
<path d="M1555 1781 c-33 -10 -78 -25 -100 -35 l-40 -17 30 25 c41 33 25 43
-38 23 -29 -9 -74 -22 -102 -28 -58 -12 -113 -47 -161 -103 l-34 -40 6 46 c4
25 2 53 -3 62 -7 13 -16 6 -51 -44 -24 -33 -47 -60 -53 -60 -6 0 -38 -26 -71
-57 -35 -33 -63 -53 -65 -46 -7 21 -277 -167 -309 -215 -9 -14 -30 -62 -45
-106 -19 -54 -28 -72 -28 -53 -1 15 -5 27 -9 27 -16 0 -92 -178 -92 -217 -1
-34 -2 -36 -14 -20 -16 21 -27 22 -20 2 4 -8 1 -15 -6 -15 -9 0 -11 -11 -6
-40 6 -38 -5 -55 -18 -27 -9 17 0 -24 10 -47 5 -14 4 -17 -5 -12 -8 6 -7 -2 3
-23 9 -17 21 -31 26 -31 5 0 25 25 45 55 70 110 214 301 266 355 91 92 249
224 339 282 194 125 431 233 556 253 26 4 -4 -13 -86 -48 -285 -123 -404 -199
-645 -409 -138 -121 -203 -197 -337 -397 -42 -63 -74 -119 -71 -124 9 -15 91
1 150 27 29 14 53 27 53 29 0 2 -15 2 -33 -1 -44 -6 -25 9 48 37 105 41 170
90 75 56 -23 -8 -45 -15 -49 -15 -14 1 37 25 99 47 64 22 64 23 26 23 -58 0
-35 16 59 40 l80 20 -65 -4 c-88 -7 -33 11 64 21 105 10 46 27 -69 19 -81 -5
-88 -4 -65 9 14 8 52 14 86 15 81 0 153 14 243 46 59 22 88 40 140 89 36 34
88 78 114 98 57 44 41 48 -40 10 -50 -23 -72 -26 -160 -27 -56 -1 -106 4 -112
9 -7 7 23 9 89 7 118 -4 140 4 287 101 54 35 114 74 133 86 30 19 31 22 10 17
-80 -17 -107 -16 -165 3 l-60 19 85 -5 c134 -8 205 24 403 182 53 43 96 79 94
81 -7 7 -280 64 -304 63 -16 0 -55 -8 -88 -18z"/>
<path d="M1140 1484 c-287 -165 -514 -383 -704 -676 -59 -90 -64 -104 -43
-111 7 -2 37 39 74 100 100 169 170 258 304 387 134 131 235 208 392 301 83
49 107 66 95 65 -2 0 -55 -30 -118 -66z"/>
<path d="M345 691 c-3 -5 3 -12 12 -14 15 -4 14 -5 -3 -6 -11 0 -27 -13 -35
-28 -8 -14 -27 -34 -43 -44 -29 -18 -30 -21 -30 -98 l-1 -80 19 37 c11 20 22
50 26 67 7 35 40 48 40 16 0 -12 -3 -21 -7 -21 -5 0 -21 -23 -36 -50 -16 -28
-26 -50 -24 -50 2 0 20 14 38 31 19 16 43 34 55 39 17 7 22 20 27 64 3 31 12
70 21 86 14 29 14 31 -14 45 -34 18 -37 18 -45 6z"/>
<path d="M502 410 c-90 -24 -128 -43 -62 -32 25 4 101 7 170 7 103 -1 146 -6
240 -29 148 -37 231 -33 327 14 74 37 77 50 6 26 -91 -32 -164 -31 -326 3
-169 36 -250 38 -355 11z"/>
<path d="M482 360 c-70 -10 -193 -46 -218 -65 -11 -7 15 -5 72 7 150 30 287
22 494 -28 89 -22 121 -26 210 -22 92 4 113 8 171 36 101 48 104 63 6 35 -115
-34 -199 -33 -382 4 -174 36 -265 45 -353 33z"/>
</g>
</svg>
