<?xml version="1.0" standalone="no"?>
<!DOCTYPE svg PUBLIC "-//W3C//DTD SVG 20010904//EN"
 "http://www.w3.org/TR/2001/REC-SVG-20010904/DTD/svg10.dtd">
<svg version="1.0" xmlns="http://www.w3.org/2000/svg"
 width="366.000000pt" height="244.000000pt" viewBox="0 0 366.000000 244.000000"
 preserveAspectRatio="xMidYMid meet">

<g transform="translate(0.000000,244.000000) scale(0.100000,-0.100000)"
fill="#000000" stroke="none">
<path d="M1245 2231 c-28 -6 -28 -7 -7 -13 21 -6 22 -10 22 -127 0 -104 -2
-121 -17 -130 -14 -8 -5 -10 37 -10 43 0 50 2 33 9 -27 11 -31 51 -8 70 9 7
17 11 18 9 17 -22 47 -68 47 -72 0 -3 -8 -8 -17 -10 -10 -3 9 -5 42 -5 53 -1
57 0 38 11 -13 7 -37 32 -55 56 l-32 44 28 23 c15 13 34 24 42 24 8 0 14 5 14
10 0 6 -22 10 -50 10 -27 0 -50 -4 -50 -10 0 -5 8 -10 17 -10 13 0 10 -7 -12
-30 -16 -16 -32 -30 -37 -30 -4 0 -8 43 -8 95 0 52 -3 94 -7 94 -5 -1 -21 -4
-38 -8z"/>
<path d="M2820 2230 c-30 -5 -32 -6 -12 -12 21 -6 22 -10 22 -127 0 -117 -1
-122 -22 -131 -18 -7 -11 -9 32 -9 42 0 51 2 38 10 -22 12 -24 52 -4 68 11 10
19 5 40 -22 31 -40 31 -44 9 -50 -10 -3 9 -5 42 -5 52 -1 57 0 38 11 -24 13
-83 84 -83 99 0 15 43 47 63 48 9 0 17 5 17 10 0 6 -22 10 -50 10 -27 0 -50
-4 -50 -10 0 -5 8 -10 17 -10 13 0 8 -9 -18 -36 l-34 -35 -5 98 -5 98 -35 -5z"/>
<path d="M1804 2219 c-9 -15 11 -33 30 -26 9 4 13 13 10 22 -7 17 -30 20 -40
4z"/>
<path d="M2530 2211 c0 -15 6 -21 21 -21 14 0 19 5 17 17 -5 26 -38 29 -38 4z"/>
<path d="M1949 2205 c-3 -5 -9 -22 -12 -36 -4 -14 -17 -31 -29 -37 l-23 -11
23 -7 c20 -6 22 -12 22 -80 0 -62 3 -75 19 -84 11 -5 24 -10 30 -10 19 0 51
39 50 63 0 22 -1 21 -12 -3 -14 -31 -26 -40 -44 -33 -9 4 -13 26 -13 74 l0 69
30 0 c17 0 30 5 30 10 0 6 -13 10 -29 10 -28 0 -30 3 -33 43 -2 23 -6 38 -9
32z"/>
<path d="M2390 2190 c0 -12 -11 -32 -25 -46 -29 -29 -31 -34 -10 -34 12 0 15
-14 15 -68 0 -56 4 -72 20 -87 36 -32 98 5 88 53 -3 13 -8 9 -19 -13 -26 -54
-44 -39 -47 43 -3 71 -2 72 22 72 14 0 28 5 31 10 4 6 -7 10 -24 10 -29 0 -31
2 -31 40 0 22 -4 40 -10 40 -5 0 -10 -9 -10 -20z"/>
<path d="M655 2120 c-3 -5 3 -10 14 -10 19 0 21 -6 21 -70 0 -64 -2 -72 -22
-80 -18 -7 -11 -9 32 -9 42 0 51 2 38 10 -13 7 -18 23 -18 57 0 57 22 94 53
90 19 -3 23 -11 27 -66 5 -68 4 -76 -20 -85 -8 -3 10 -5 40 -5 30 0 47 2 37 5
-15 4 -17 14 -15 70 3 73 22 98 56 77 25 -16 30 -123 6 -141 -15 -11 -11 -13
32 -13 38 1 45 3 32 11 -14 8 -18 24 -18 74 0 44 -5 68 -16 79 -19 20 -53 20
-81 1 -18 -13 -22 -13 -33 0 -17 20 -59 19 -82 -2 -17 -15 -18 -15 -18 0 0 19
-54 24 -65 7z"/>
<path d="M1039 2109 c-16 -16 -18 -23 -8 -35 17 -21 27 -17 31 14 5 47 78 39
78 -9 0 -13 -15 -22 -55 -34 -42 -12 -59 -22 -68 -42 -10 -22 -8 -28 12 -44
28 -23 47 -24 83 -5 23 12 29 12 39 0 15 -18 33 -18 48 0 9 11 8 14 -6 12 -15
-1 -18 9 -21 69 -2 38 -8 75 -14 82 -17 21 -95 16 -119 -8z m101 -92 c0 -34
-33 -61 -65 -53 -50 13 -15 76 42 76 17 0 23 -6 23 -23z"/>
<path d="M1495 2105 c-19 -18 -25 -35 -25 -65 0 -55 13 -76 55 -90 38 -12 66
-7 90 16 25 25 17 39 -8 16 -13 -12 -32 -22 -44 -22 -25 0 -53 30 -53 58 0 20
5 22 64 22 62 0 63 1 59 24 -13 65 -91 89 -138 41z m90 -1 c28 -28 15 -49 -33
-52 -36 -3 -42 0 -42 17 0 23 25 51 45 51 7 0 21 -7 30 -16z"/>
<path d="M1770 2121 c0 -5 9 -11 20 -14 17 -4 20 -14 20 -71 0 -60 -2 -68 -22
-76 -18 -7 -11 -9 32 -9 42 0 51 2 38 10 -15 8 -18 24 -18 89 l0 80 -35 0
c-19 0 -35 -4 -35 -9z"/>
<path d="M2186 2114 c-36 -35 -16 -71 51 -90 46 -13 54 -19 51 -37 -6 -41 -73
-34 -100 10 l-17 28 -1 -44 c0 -32 3 -42 11 -34 7 7 21 8 44 0 45 -14 85 11
85 52 0 35 -12 46 -67 60 -48 13 -60 26 -43 46 19 23 48 18 75 -11 l25 -27 0
30 c0 29 -2 30 -49 32 -34 1 -54 -4 -65 -15z"/>
<path d="M2500 2120 c0 -5 7 -10 15 -10 12 0 15 -15 15 -74 0 -63 -3 -75 -17
-79 -10 -3 7 -5 37 -5 30 0 47 2 38 5 -15 4 -18 17 -18 89 l0 84 -35 0 c-19 0
-35 -4 -35 -10z"/>
<path d="M2660 2112 c-27 -21 -38 -93 -20 -126 12 -24 49 -46 75 -46 18 0 72
46 63 55 -3 4 -16 -3 -27 -14 -25 -25 -30 -26 -59 -5 -29 20 -32 102 -4 127
29 26 54 22 46 -7 -7 -30 13 -44 34 -22 14 14 14 17 -3 36 -23 25 -75 26 -105
2z"/>
<path d="M1841 1594 c0 -11 3 -14 6 -6 3 7 2 16 -1 19 -3 4 -6 -2 -5 -13z"/>
<path d="M1782 1485 c-47 -92 -62 -103 -127 -91 -29 6 -34 4 -29 -9 3 -8 10
-13 14 -10 4 3 10 -4 13 -15 3 -13 0 -20 -8 -20 -7 0 -16 -6 -19 -12 -3 -7 -3
-1 0 13 8 37 -22 64 -91 83 l-60 16 79 -74 c77 -72 79 -75 73 -113 -2 -21 -26
-75 -51 -121 -25 -45 -46 -84 -46 -87 0 -2 27 14 60 36 36 24 58 45 54 51 -4
6 -3 8 3 5 6 -4 16 0 23 8 6 7 19 11 28 8 15 -4 15 -3 2 7 -11 9 -12 13 -2 17
6 2 10 8 8 11 -2 4 7 15 21 26 25 18 25 18 14 -3 -10 -17 -9 -21 4 -21 9 0 14
-4 11 -8 -7 -11 27 -54 84 -109 49 -47 70 -54 70 -23 0 11 -5 20 -11 20 -6 0
-8 -7 -5 -16 5 -14 4 -15 -9 -4 -9 7 -14 19 -11 27 4 9 1 11 -6 7 -7 -5 -8 -3
-3 5 10 17 14 102 5 96 -5 -3 -8 11 -8 30 0 19 4 32 9 29 5 -3 9 3 10 13 0 10
3 13 5 7 5 -13 54 4 54 19 0 5 5 5 12 1 7 -5 9 -2 5 8 -6 18 29 33 39 17 3 -5
0 -9 -5 -9 -6 0 -11 -4 -11 -10 0 -5 7 -7 15 -4 8 4 15 12 15 19 0 8 15 13 40
13 23 1 38 -3 35 -9 -4 -5 -2 -9 4 -9 5 0 12 4 16 9 7 12 -40 26 -135 41 -41
7 -82 17 -90 24 -13 10 -13 9 -1 -6 9 -12 10 -18 2 -18 -6 0 -11 -6 -11 -14 0
-8 -7 -17 -16 -20 -24 -9 -27 -7 -10 10 19 18 22 49 4 38 -8 -5 -9 -2 -5 9 3
10 2 17 -3 17 -5 0 -7 7 -4 15 8 21 -13 19 -25 -2 -10 -16 -10 -16 -11 3 0 11
-4 25 -10 32 -7 9 -7 9 2 2 17 -14 25 -13 32 6 3 8 2 12 -3 9 -5 -3 -13 0 -17
6 -4 7 -3 9 3 6 6 -4 16 0 23 8 10 12 9 15 -5 15 -12 0 -15 4 -8 13 8 10 17
67 10 67 -1 0 -22 -38 -45 -85z m-26 -137 c-4 6 -3 12 2 12 6 0 13 -11 16 -24
3 -13 9 -32 13 -43 7 -17 6 -17 -11 0 -20 19 -31 23 -20 6 4 -7 2 -10 -6 -7
-7 2 -14 19 -16 37 -4 30 -3 32 13 20 11 -10 14 -10 9 -1z m4 -89 c0 -6 -4 -7
-10 -4 -5 3 -10 11 -10 16 0 6 5 7 10 4 6 -3 10 -11 10 -16z m47 -44 c0 -8 -4
-12 -9 -9 -4 3 -8 9 -8 15 0 5 4 9 8 9 5 0 9 -7 9 -15z"/>
<path d="M1853 1535 c0 -22 2 -30 4 -17 2 12 2 30 0 40 -3 9 -5 -1 -4 -23z"/>
<path d="M1862 1435 c0 -16 2 -22 5 -12 2 9 2 23 0 30 -3 6 -5 -1 -5 -18z"/>
<path d="M2020 1280 c-19 -11 -30 -19 -25 -19 6 0 26 8 45 19 19 11 31 19 25
19 -5 0 -26 -8 -45 -19z"/>
<path d="M1921 1025 c0 -11 4 -27 9 -35 9 -13 10 -13 9 0 0 8 -4 24 -9 35 l-9
20 0 -20z"/>
<path d="M1492 507 c-6 -6 -13 -24 -17 -40 -4 -15 -12 -27 -19 -27 -8 0 -8 -2
1 -8 9 -6 8 -25 -3 -81 -7 -41 -12 -76 -10 -78 6 -6 24 57 32 110 4 34 11 47
23 48 10 0 11 2 4 6 -15 6 -17 42 -3 63 9 13 11 13 19 0 11 -16 27 -7 16 9 -8
15 -30 14 -43 -2z"/>
<path d="M2362 508 c-5 -7 -13 -24 -17 -38 -4 -14 -13 -28 -19 -32 -8 -6 -8
-8 0 -8 8 0 8 -19 -1 -68 -13 -79 -23 -101 -36 -81 -6 10 -9 10 -9 2 0 -6 4
-14 9 -18 19 -11 39 27 51 95 9 53 16 70 28 71 11 0 12 2 5 6 -15 6 -17 42 -3
63 9 13 11 13 19 0 11 -16 27 -7 16 9 -8 15 -30 14 -43 -1z"/>
<path d="M150 495 c0 -13 3 -13 20 -3 10 7 22 10 25 7 5 -5 -10 -102 -21 -141
-4 -12 0 -18 11 -18 9 0 14 3 12 8 -6 9 18 141 27 150 4 3 16 1 26 -6 17 -10
20 -10 20 3 0 12 -13 15 -60 15 -47 0 -60 -3 -60 -15z"/>
<path d="M285 468 c-1 -24 -4 -65 -9 -92 -6 -36 -6 -47 3 -42 6 4 11 17 11 29
0 26 26 67 42 67 7 0 9 -17 6 -45 -3 -25 -1 -48 4 -51 11 -7 38 14 38 29 0 6
-7 2 -15 -9 -14 -17 -15 -14 -9 35 l7 54 -30 -5 c-30 -4 -31 -4 -25 34 3 28 1
38 -9 38 -10 0 -14 -13 -14 -42z"/>
<path d="M587 492 c-24 -27 -21 -39 19 -76 38 -35 41 -60 8 -73 -22 -8 -50 10
-46 31 2 9 -2 16 -8 16 -21 0 -10 -41 15 -52 67 -30 105 49 44 92 -39 29 -37
64 4 68 26 3 28 1 22 -20 -6 -18 -5 -21 5 -11 18 17 4 43 -23 43 -13 0 -31 -8
-40 -18z"/>
<path d="M1607 492 c-24 -27 -21 -38 18 -78 29 -29 33 -38 25 -54 -18 -33 -77
-20 -64 13 3 10 1 17 -5 17 -19 0 -12 -39 8 -50 27 -14 47 -13 65 6 26 25 20
60 -15 84 -38 28 -37 65 1 65 19 0 24 -4 22 -20 -3 -16 -1 -17 8 -8 18 17 4
43 -23 43 -13 0 -31 -8 -40 -18z"/>
<path d="M2537 502 c8 -5 9 -26 0 -84 -6 -43 -8 -80 -4 -84 8 -8 37 14 37 29
0 6 -7 2 -15 -9 -18 -24 -19 -11 -1 78 14 71 12 78 -13 78 -11 0 -12 -3 -4 -8z"/>
<path d="M2676 504 c8 -3 9 -19 3 -52 -5 -26 -11 -62 -14 -79 -3 -18 -2 -33 3
-33 5 0 15 35 22 78 7 42 17 80 24 84 6 4 -2 7 -19 7 -16 0 -25 -3 -19 -5z"/>
<path d="M874 425 c-27 -27 -31 -66 -9 -85 16 -13 55 -5 55 13 0 8 -3 8 -12
-1 -18 -18 -38 -15 -38 6 0 9 14 25 30 34 33 19 39 42 14 52 -9 3 -25 -4 -40
-19z m24 -26 c-31 -20 -39 -1 -10 27 16 17 17 17 20 -1 2 -9 -2 -21 -10 -26z"/>
<path d="M3515 440 c3 -5 8 -10 11 -10 2 0 4 5 4 10 0 6 -5 10 -11 10 -5 0 -7
-4 -4 -10z"/>
<path d="M416 418 c-40 -56 14 -124 55 -70 13 15 12 16 -3 3 -20 -15 -48 -8
-48 11 0 7 14 21 30 30 28 16 42 48 20 48 -5 0 -7 -6 -4 -14 3 -8 -4 -19 -16
-26 -29 -16 -37 -5 -15 20 10 11 13 20 7 20 -6 0 -18 -10 -26 -22z"/>
<path d="M695 424 c-24 -24 -17 -88 11 -92 11 -2 27 5 35 14 13 16 12 16 -9 3
-19 -11 -24 -12 -31 -1 -11 19 -2 65 17 80 9 6 11 12 5 12 -7 0 -19 -7 -28
-16z"/>
<path d="M743 418 c-2 -16 1 -18 10 -9 7 7 8 14 1 21 -6 6 -10 2 -11 -12z"/>
<path d="M785 391 c0 -27 4 -53 8 -58 9 -8 37 23 37 41 -1 6 -8 0 -16 -14 -15
-24 -15 -23 -10 28 4 37 2 52 -7 52 -8 0 -12 -18 -12 -49z"/>
<path d="M957 433 c7 -2 10 -10 8 -16 -11 -36 -13 -77 -5 -77 6 0 10 10 10 23
0 28 26 67 46 67 12 0 13 -8 8 -35 -8 -47 1 -72 21 -55 8 7 15 17 15 23 0 6
-7 2 -15 -9 -13 -17 -14 -14 -8 33 l6 51 -49 -1 c-27 0 -44 -2 -37 -4z"/>
<path d="M1101 426 c-14 -16 -18 -67 -7 -85 11 -17 42 -13 57 7 13 15 12 16
-3 3 -40 -31 -65 20 -32 67 17 24 4 31 -15 8z"/>
<path d="M1150 420 c0 -19 3 -21 12 -12 9 9 9 15 0 24 -9 9 -12 7 -12 -12z"/>
<path d="M1194 405 c-24 -59 21 -104 57 -57 13 15 12 16 -3 3 -10 -7 -25 -11
-33 -7 -19 7 -20 36 0 36 20 0 57 38 50 50 -9 15 -25 12 -19 -3 6 -16 -23 -44
-33 -33 -4 4 -2 16 5 26 8 13 8 20 2 20 -6 0 -18 -16 -26 -35z"/>
<path d="M1346 408 c-25 -58 13 -100 55 -62 19 17 27 78 10 88 -4 3 -6 -5 -4
-17 7 -34 -14 -79 -35 -75 -23 4 -27 43 -8 74 10 14 12 24 6 24 -6 0 -17 -14
-24 -32z"/>
<path d="M1705 388 c0 -41 4 -53 17 -56 9 -2 19 2 23 8 5 8 11 8 21 -1 12 -10
17 -9 27 1 10 10 9 11 -2 5 -12 -7 -13 1 -7 44 5 36 4 51 -4 46 -5 -3 -10 -16
-10 -28 0 -26 -26 -67 -42 -67 -7 0 -8 17 -4 50 5 37 3 50 -6 50 -9 0 -13 -16
-13 -52z"/>
<path d="M1844 416 c-19 -30 -15 -65 8 -80 14 -8 21 -7 33 7 8 9 10 12 3 7 -7
-6 -18 -10 -25 -10 -19 0 -17 65 3 84 8 9 11 16 5 16 -6 0 -18 -11 -27 -24z"/>
<path d="M1893 418 c-2 -16 1 -18 10 -9 7 7 8 14 1 21 -6 6 -10 2 -11 -12z"/>
<path d="M1944 416 c-19 -30 -15 -65 8 -80 14 -8 21 -7 33 7 8 9 10 12 3 7 -7
-6 -18 -10 -25 -10 -19 0 -17 65 3 84 8 9 11 16 5 16 -6 0 -18 -11 -27 -24z"/>
<path d="M1993 425 c0 -8 4 -15 9 -15 4 0 8 4 8 9 0 6 -4 12 -8 15 -5 3 -9 -1
-9 -9z"/>
<path d="M2046 418 c-35 -49 -8 -101 41 -79 14 6 23 15 19 18 -3 4 -12 1 -18
-5 -18 -18 -38 -15 -38 6 0 9 14 25 30 34 29 16 42 48 19 48 -5 0 -8 -4 -4 -9
6 -10 -21 -41 -36 -41 -14 0 -11 17 7 34 8 9 11 16 5 16 -5 0 -17 -10 -25 -22z"/>
<path d="M2143 424 c-3 -8 4 -25 16 -38 27 -28 27 -46 0 -46 -15 0 -19 5 -15
15 3 8 1 15 -5 15 -6 0 -9 -8 -7 -17 5 -26 44 -28 58 -4 8 17 6 25 -12 43 -13
13 -22 29 -20 35 4 18 -7 16 -15 -3z"/>
<path d="M2186 425 c4 -8 8 -15 10 -15 2 0 4 7 4 15 0 8 -4 15 -10 15 -5 0 -7
-7 -4 -15z"/>
<path d="M2236 424 c-3 -9 4 -25 20 -39 26 -24 25 -45 -2 -45 -8 0 -14 7 -14
15 0 8 -4 15 -10 15 -15 0 -12 -16 5 -30 18 -15 43 -7 52 16 4 11 -2 24 -16
36 -14 10 -21 24 -17 33 3 8 1 15 -3 15 -5 0 -12 -7 -15 -16z"/>
<path d="M2276 425 c4 -8 8 -15 10 -15 2 0 4 7 4 15 0 8 -4 15 -10 15 -5 0 -7
-7 -4 -15z"/>
<path d="M2397 433 c9 -3 11 -18 7 -47 -7 -46 8 -68 29 -47 9 9 8 11 -5 6 -20
-8 -20 -7 -9 53 8 39 7 42 -13 41 -11 0 -16 -3 -9 -6z"/>
<path d="M2466 413 c-4 -16 -9 -35 -11 -43 -3 -8 0 -21 4 -29 8 -12 12 -12 25
-2 9 8 16 18 16 24 0 6 -7 2 -15 -9 -16 -22 -17 -16 -6 44 9 46 -3 59 -13 15z"/>
<path d="M2786 418 c-40 -56 14 -124 55 -70 13 15 12 16 -3 3 -20 -15 -48 -8
-48 11 0 7 14 21 30 30 28 16 42 48 20 48 -5 0 -7 -6 -4 -14 3 -8 -4 -19 -16
-26 -29 -16 -37 -5 -15 20 10 11 13 20 7 20 -6 0 -18 -10 -26 -22z"/>
<path d="M2886 418 c-19 -27 -21 -62 -3 -76 24 -20 97 -5 97 21 0 6 -7 2 -15
-9 -15 -18 -15 -15 -10 32 5 39 3 51 -7 51 -10 0 -13 -9 -10 -28 5 -32 -13
-69 -33 -69 -21 0 -20 64 1 84 8 9 11 16 5 16 -5 0 -17 -10 -25 -22z"/>
<path d="M3007 433 c9 -3 11 -19 7 -51 -6 -55 10 -39 20 21 6 34 5 37 -16 36
-13 0 -18 -3 -11 -6z"/>
<path d="M3055 430 c3 -5 10 -10 16 -10 5 0 9 5 9 10 0 6 -7 10 -16 10 -8 0
-12 -4 -9 -10z"/>
<path d="M3097 432 c8 -5 9 -21 3 -50 -4 -23 -4 -42 0 -42 4 0 10 14 14 32 7
37 23 58 43 58 11 0 13 -9 8 -44 -4 -24 -3 -46 3 -49 5 -4 10 17 11 48 1 47
-1 55 -17 55 -10 0 -23 -5 -30 -12 -9 -9 -12 -9 -12 0 0 7 -8 12 -17 12 -12 0
-14 -3 -6 -8z"/>
<path d="M3228 432 c9 -6 11 -21 6 -49 -4 -28 -2 -43 6 -48 13 -8 40 19 40 39
-1 6 -6 1 -13 -12 -18 -32 -26 -18 -16 26 12 51 12 52 -13 52 -16 0 -19 -3
-10 -8z"/>
<path d="M3303 383 c0 -30 3 -51 8 -47 5 3 9 15 9 27 0 28 26 67 45 67 10 0
12 -9 8 -35 -8 -47 2 -71 22 -55 8 7 15 17 15 23 0 6 -7 2 -15 -9 -14 -17 -15
-15 -9 33 l6 51 -43 -1 -44 0 -2 -54z"/>
<path d="M3446 424 c-3 -9 -6 -26 -6 -39 0 -13 -4 -26 -10 -30 -5 -3 -7 -12
-3 -20 3 -9 -1 -22 -8 -31 -11 -14 -10 -18 6 -30 10 -8 23 -14 29 -14 5 0 1 6
-9 14 -25 18 -13 46 20 46 27 0 33 -18 13 -38 -9 -9 -9 -12 0 -12 15 0 31 39
25 58 -3 6 -18 12 -34 12 -16 0 -29 5 -29 10 0 6 9 10 20 10 23 0 55 44 46 65
-10 26 -23 16 -18 -14 4 -31 -13 -50 -31 -32 -7 7 -7 18 1 36 6 14 8 25 3 25
-5 0 -12 -7 -15 -16z"/>
<path d="M3196 365 c-9 -26 -7 -32 5 -12 6 10 9 21 6 23 -2 3 -7 -2 -11 -11z"/>
<path d="M2731 353 c-7 -8 -10 -17 -7 -20 9 -9 29 13 25 25 -2 6 -10 3 -18 -5z"/>
<path d="M1410 281 c0 -6 4 -13 10 -16 6 -3 7 1 4 9 -7 18 -14 21 -14 7z"/>
</g>
</svg>
