<?xml version="1.0" standalone="no"?>
<!DOCTYPE svg PUBLIC "-//W3C//DTD SVG 20010904//EN"
 "http://www.w3.org/TR/2001/REC-SVG-20010904/DTD/svg10.dtd">
<svg version="1.0" xmlns="http://www.w3.org/2000/svg"
 width="512.000000pt" height="512.000000pt" viewBox="0 0 512.000000 512.000000"
 preserveAspectRatio="xMidYMid meet">

<g transform="translate(0.000000,512.000000) scale(0.100000,-0.100000)"
fill="#000000" stroke="none">
<path d="M2786 4870 c-61 -16 -153 -69 -191 -112 -42 -46 -45 -84 -10 -122 34
-37 75 -35 122 8 61 54 100 70 173 70 138 0 234 -96 234 -234 0 -138 -96 -234
-234 -234 -129 0 -218 82 -236 214 -12 94 -83 132 -141 74 -24 -24 -25 -30
-20 -91 7 -68 40 -154 82 -208 l23 -32 -174 -249 c-97 -137 -179 -256 -184
-264 -10 -17 15 -24 -416 116 l-291 95 -7 56 c-8 70 -57 164 -105 204 -68 56
-118 73 -211 73 -100 0 -160 -24 -225 -89 -66 -65 -90 -125 -90 -225 0 -119
35 -185 141 -270 l31 -25 -206 -969 -207 -970 -67 -12 c-136 -25 -241 -106
-300 -232 -29 -61 -32 -76 -32 -163 0 -90 2 -99 37 -171 45 -91 103 -147 196
-191 61 -29 76 -32 162 -32 86 0 101 3 161 31 83 39 142 93 181 161 35 62 28
61 187 33 93 -16 119 -17 140 -7 57 27 66 100 16 133 -13 8 -82 25 -153 37
l-129 21 -11 60 c-7 35 -8 64 -3 69 5 5 247 156 538 336 l528 328 40 -27 c66
-44 105 -55 190 -55 68 0 88 5 134 29 46 24 58 26 74 16 71 -44 1587 -1235
1584 -1244 -2 -6 -12 -12 -23 -14 -11 -1 -533 83 -1162 188 -628 104 -1157
190 -1176 190 -25 0 -40 -7 -55 -26 -29 -36 -26 -70 7 -102 26 -26 63 -33
1199 -222 l1172 -195 6 -48 c10 -70 67 -177 121 -227 25 -23 75 -56 112 -73
61 -29 76 -32 162 -32 86 0 101 3 162 32 93 44 151 100 196 191 35 72 37 81
37 171 0 87 -3 102 -32 163 -17 37 -50 87 -73 112 -54 59 -161 113 -240 122
-59 6 -60 7 -69 43 -6 20 -71 299 -146 621 -75 322 -140 602 -146 622 -20 75
-86 102 -134 53 -14 -13 -25 -35 -25 -49 0 -13 68 -313 150 -666 83 -353 150
-646 150 -650 0 -5 -21 -20 -46 -35 l-46 -27 -39 28 c-21 16 -381 295 -799
619 -696 541 -759 592 -755 615 3 14 8 57 11 96 l7 72 306 137 c345 155 448
202 606 273 l109 50 39 -33 c48 -41 96 -65 162 -79 l50 -11 13 -60 c24 -110
33 -135 54 -155 30 -27 73 -26 103 5 30 29 31 49 5 161 -11 48 -17 90 -13 94
4 4 26 21 49 38 24 18 55 57 75 94 31 58 34 70 34 148 -1 77 -4 91 -35 148
-59 110 -147 165 -270 166 -41 1 -87 -2 -101 -6 -26 -8 -38 8 -339 424 l-312
432 17 26 c9 14 31 54 48 90 29 59 32 73 32 161 0 90 -2 99 -37 171 -68 136
-188 217 -336 224 -42 2 -94 -1 -116 -6z m574 -1192 c247 -341 310 -435 302
-447 -5 -9 -16 -15 -23 -14 -8 2 -140 43 -293 93 -154 49 -294 90 -312 90 -37
0 -74 -38 -74 -76 0 -53 31 -68 343 -169 l297 -96 0 -38 0 -38 -512 -230 -513
-231 -39 34 c-22 19 -43 34 -48 34 -4 0 -8 7 -8 14 0 15 189 748 194 753 1 2
30 -7 65 -18 71 -24 110 -16 130 27 27 60 -1 99 -91 128 -38 12 -58 23 -58 33
0 16 112 458 131 521 9 28 15 32 47 33 20 0 57 6 82 13 25 8 50 14 57 15 6 0
152 -193 323 -431z m-2090 380 c48 -25 90 -89 90 -138 0 -14 -10 -46 -22 -70
-25 -48 -89 -90 -138 -90 -49 0 -113 42 -137 90 -13 24 -23 56 -23 70 0 14 10
46 23 70 24 48 88 90 137 90 14 0 46 -10 70 -22z m1356 -237 c-34 -132 -64
-242 -68 -246 -3 -3 -45 6 -92 20 l-87 27 18 27 c31 47 287 411 289 411 1 0
-26 -108 -60 -239z m-698 -220 c134 -43 190 -66 185 -74 -9 -16 -233 -337
-253 -364 -17 -21 -20 -17 -209 252 -105 151 -194 281 -197 289 -4 9 -1 22 5
30 12 14 -2 19 469 -133z m-403 -283 c116 -166 211 -307 213 -314 2 -9 -886
-1292 -923 -1333 -8 -8 0 46 19 140 18 85 111 521 206 970 l173 816 46 10 c25
6 48 11 51 11 3 1 100 -135 215 -300z m888 126 c87 -29 107 -39 103 -52 -3
-10 -46 -174 -96 -367 -50 -192 -93 -357 -95 -365 -3 -10 -27 -20 -62 -26 -32
-6 -58 -11 -59 -10 0 0 -58 83 -128 184 -70 100 -126 189 -124 196 6 29 324
475 338 476 8 0 64 -16 123 -36z m-454 -748 c61 -87 111 -163 111 -168 0 -6
-8 -22 -19 -36 -35 -50 -53 -122 -49 -200 l3 -73 -530 -328 c-291 -181 -531
-327 -533 -326 -2 1 201 293 449 649 249 355 454 645 455 643 1 -1 52 -74 113
-161z m-1213 -1204 c84 -43 128 -117 128 -212 0 -137 -96 -234 -234 -234 -138
0 -234 97 -234 234 0 112 62 195 174 231 38 13 123 3 166 -19z m3840 -640 c84
-43 128 -117 128 -212 0 -137 -96 -234 -234 -234 -138 0 -234 97 -234 234 0
112 62 195 174 231 38 13 123 3 166 -19z"/>
<path d="M1461 1184 c-27 -35 -26 -66 2 -100 17 -20 33 -27 57 -27 39 0 80 40
80 79 0 66 -98 100 -139 48z"/>
</g>
</svg>
